<?xml version="1.0" encoding="UTF-8"?>
<svg id="Lager_1" xmlns="http://www.w3.org/2000/svg" viewBox="0 0 519.63 519.63">
  <defs>
    <style>
      .cls-1 {
        fill: #e8e1d5;
      }

      .cls-1, .cls-2 {
        stroke-width: 6px;
      }

      .cls-1, .cls-2, .cls-3 {
        stroke: #1d1d1b;
        stroke-miterlimit: 10;
      }

      .cls-4, .cls-2, .cls-3 {
        fill: #1d1d1b;
      }

      .cls-3 {
        stroke-width: 11px;
      }
    </style>
  </defs>
  <circle class="cls-1" cx="259.81" cy="259.81" r="256.81"/>
  <g>
    <path class="cls-4" d="M157.35,66.74h11.49l66.21,182.42c8.79,27.5,14.87,47.62,24.32,74.79h1.35c9.46-27.17,15.54-47.29,24.32-74.79l43.24-132.81h10.81l-73.64,221.34h-10.81L157.35,66.74Z"/>
    <path class="cls-4" d="M157.33,66.67s11.51-.05,11.51-.05c0,0,.09,0,.09,0,0,0,.03.08.03.08,13.75,37.9,52.27,144.06,65.4,180.25,8.45,25.6,16.12,51.54,25.1,76.96,0,0-.09-.06-.09-.06,0,0,1.35,0,1.35,0l-.09.06c9.03-25.75,16.96-51.87,25.33-77.85,5.52-16.83,36.07-111.01,42.32-129.78,0,0,10.81,0,10.81,0h.09c.06-.02-73.73,221.41-73.7,221.42,0,.07-10.81,0-10.84.02-.08.02-97.26-271.02-97.31-271.06h0ZM157.38,66.81s97.36,270.96,97.26,270.85c-.03.01,10.94-.04,10.78.02,0,0,73.61-221.35,73.61-221.35,0,0,.06.08.06.08,0,0-10.81,0-10.81,0-6.08,19.15-36.63,112.51-42.16,129.7-8.36,25.98-16.28,52.1-25.31,77.86,0,0-.02.06-.02.06h-1.42s-.07,0-.07,0c-8.99-25.44-16.69-51.4-25.15-77.02-12.96-35.68-51.92-143.02-65.43-180.23,0,0,.12.08.12.08-.08,0-11.39-.05-11.46-.05h0Z"/>
  </g>
  <line class="cls-3" x1="260.15" y1="332.95" x2="260.15" y2="441.11"/>
  <line class="cls-2" x1="229.58" y1="441.11" x2="290.05" y2="441.11"/>
</svg>